<svg width="49.5" height="21.72" viewBox="0 0 49.5 21.72" xmlns="http://www.w3.org/2000/svg"><g id="svgGroup" stroke-linecap="round" fill-rule="evenodd" font-size="9pt" stroke="#ffffff" stroke-width="0.25mm" fill="#ffffff" style="stroke:#ffffff;stroke-width:0.25mm;fill:#ffffff"><path d="M 15.96 1.71 L 14.91 4.08 Q 13.65 3.39 12.345 2.94 Q 11.04 2.49 9.45 2.49 A 6.039 6.039 0 0 0 7.204 2.901 A 5.676 5.676 0 0 0 6.09 3.495 A 6.089 6.089 0 0 0 4.493 5.12 A 8.237 8.237 0 0 0 3.765 6.45 Q 3.024 8.141 2.925 10.486 A 17.493 17.493 0 0 0 2.91 11.22 A 13.654 13.654 0 0 0 3.039 13.146 Q 3.186 14.177 3.501 15.049 A 7.811 7.811 0 0 0 3.69 15.525 A 7.254 7.254 0 0 0 4.57 17.039 A 5.731 5.731 0 0 0 5.85 18.27 Q 7.23 19.23 9.03 19.23 A 6.829 6.829 0 0 0 10.709 19.031 A 5.65 5.65 0 0 0 12.015 18.525 A 12.108 12.108 0 0 0 12.916 17.99 Q 13.601 17.539 14.07 17.07 L 14.07 12.48 L 9.72 12.48 L 9.72 10.23 L 16.77 10.23 L 16.77 21.36 L 14.25 21.36 L 14.25 19.26 A 10.765 10.765 0 0 1 12.937 20.248 A 14.206 14.206 0 0 1 11.7 20.955 Q 10.2 21.72 8.37 21.72 A 7.971 7.971 0 0 1 5.576 21.24 A 7.353 7.353 0 0 1 4.05 20.46 A 8.066 8.066 0 0 1 1.671 17.971 A 10.185 10.185 0 0 1 1.08 16.875 Q 0 14.55 0 11.4 A 16.89 16.89 0 0 1 0.251 8.425 A 12.772 12.772 0 0 1 1.14 5.475 A 9.819 9.819 0 0 1 2.875 2.791 A 8.837 8.837 0 0 1 4.425 1.455 A 8.35 8.35 0 0 1 7.836 0.135 A 11.119 11.119 0 0 1 9.6 0 A 13.578 13.578 0 0 1 11.391 0.113 A 10.083 10.083 0 0 1 13.08 0.48 Q 14.61 0.96 15.96 1.71 Z M 36.6 20.16 L 38.01 17.85 A 8.668 8.668 0 0 0 39.743 18.804 A 9.649 9.649 0 0 0 39.87 18.855 A 5.67 5.67 0 0 0 41.241 19.202 A 7.325 7.325 0 0 0 42.18 19.26 A 5.685 5.685 0 0 0 43.605 19.091 A 4.103 4.103 0 0 0 45.42 18.105 A 3.842 3.842 0 0 0 46.647 15.318 A 5.138 5.138 0 0 0 46.65 15.15 Q 46.65 13.29 45.375 12.105 A 4.135 4.135 0 0 0 43.74 11.189 Q 43.107 10.996 42.346 10.941 A 8.643 8.643 0 0 0 41.73 10.92 L 38.01 10.92 L 38.01 0.36 L 48.39 0.36 L 48.39 2.79 L 40.56 2.79 L 40.56 8.49 L 42.06 8.49 Q 44.4 8.49 46.065 9.3 A 6.418 6.418 0 0 1 47.692 10.411 A 5.629 5.629 0 0 1 48.615 11.55 A 6.007 6.007 0 0 1 49.476 14.251 A 7.412 7.412 0 0 1 49.5 14.85 A 7.513 7.513 0 0 1 49.242 16.854 A 6.33 6.33 0 0 1 48.585 18.405 Q 47.67 19.95 46.02 20.835 A 7.327 7.327 0 0 1 43.735 21.596 A 9.706 9.706 0 0 1 42.15 21.72 Q 40.6 21.72 39.416 21.43 A 7.558 7.558 0 0 1 39 21.315 Q 37.68 20.91 36.6 20.16 Z M 33.9 21.36 L 21.42 21.36 L 21.42 0.36 L 24.27 0.36 L 24.27 18.81 L 33.9 18.81 L 33.9 21.36 Z" vector-effect="non-scaling-stroke"/></g></svg>